<svg width="28" height="28" viewBox="0 0 28 28" fill="none" xmlns="http://www.w3.org/2000/svg">
<path d="M22.2137 9.49573L22.0459 9.32613H22.0557L16.5767 3.78931C16.399 3.60974 16.1423 3.5 15.8955 3.5H8.35308C7.59292 3.5 6.87224 3.79929 6.33914 4.34798C5.81591 4.87672 5.50987 5.61496 5.5 6.37316V21.6268C5.5 22.395 5.79617 23.1133 6.3194 23.652C6.86237 24.1907 7.57317 24.5 8.33333 24.5H19.6568C20.4071 24.5 21.1179 24.2007 21.6609 23.652C22.2038 23.1033 22.5 22.385 22.5 21.6169V10.1841C22.5 9.93468 22.3914 9.6753 22.2137 9.49573ZM16.32 6.28337L19.2224 9.21639H16.32V6.28337ZM20.5947 21.6169C20.5947 21.8563 20.4959 22.0857 20.3281 22.2753C20.1603 22.4449 19.9135 22.5546 19.6667 22.5546H8.36295C8.12602 22.5546 7.89895 22.4549 7.71138 22.2853C7.54355 22.1157 7.43496 21.8663 7.43496 21.6169V6.38314C7.43496 6.14371 7.53368 5.91425 7.70151 5.7247C7.82985 5.59501 7.99768 5.50523 8.17538 5.46532H8.35308L14.3949 5.45534V10.204C14.3949 10.7428 14.8293 11.1717 15.3525 11.1717H20.5848V21.6268L20.5947 21.6169Z" fill="#1D2756" fill-opacity="0.9"/>
<path d="M9.28107 17.0078C9.28107 17.5466 9.71545 17.9755 10.2387 17.9755H17.7811C18.3142 17.9755 18.7387 17.5366 18.7387 17.0078C18.7387 16.4791 18.3043 16.0401 17.7811 16.0401H10.2387C9.70558 16.0401 9.28107 16.4791 9.28107 17.0078Z" fill="#1D2756" fill-opacity="0.9"/>
<path d="M10.2387 13.7057H12.8548C13.3879 13.7057 13.8124 13.2667 13.8124 12.738C13.8124 12.2093 13.378 11.7703 12.8548 11.7703H10.2387C9.70558 11.7703 9.28107 12.2093 9.28107 12.738C9.28107 13.2667 9.71545 13.7057 10.2387 13.7057Z" fill="#1D2756" fill-opacity="0.9"/>
</svg>
