<svg width="28" height="28" viewBox="0 0 28 28" fill="none" xmlns="http://www.w3.org/2000/svg">
<path fill-rule="evenodd" clip-rule="evenodd" d="M18.7817 12.8354C22.4064 12.8354 25.3521 15.6618 25.3522 19.1462C25.3522 22.6307 22.4065 25.4683 18.7817 25.4683C15.1572 25.468 12.2124 22.6305 12.2124 19.1462C12.2126 15.6619 15.1573 12.8357 18.7817 12.8354ZM18.7817 14.5296C16.1282 14.5299 13.9705 16.6005 13.9704 19.1462C13.9704 21.6919 16.1281 23.7635 18.7817 23.7638C21.4356 23.7638 23.5942 21.6921 23.5942 19.1462C23.5941 16.6003 21.4355 14.5296 18.7817 14.5296Z" fill="#333C66"/>
<path d="M20.902 2.91423C21.8594 2.99827 22.5836 3.69995 22.5837 4.57878V12.366C21.888 11.9755 21.1267 11.6882 20.3198 11.5264V5.19629H6.09538V21.9842H10.4043L10.5809 22.0492C10.9781 22.2367 11.2495 22.6657 11.2497 23.1224C11.2497 23.6443 10.8957 24.131 10.4043 24.2617H5.53483C4.58601 24.2615 3.82015 23.4546 3.82015 22.4582V4.7098C3.82015 3.71334 4.58601 2.90648 5.53483 2.90625H20.7083L20.902 2.91423Z" fill="#333C66"/>
<path d="M9.81869 16.2637C10.4732 16.2637 11.0184 16.797 11.0184 17.4395C11.0182 18.0939 10.4852 18.6152 9.81869 18.6152H8.62582C7.9715 18.6151 7.42628 18.0938 7.42611 17.4395C7.42611 16.785 7.95929 16.2638 8.62582 16.2637H9.81869Z" fill="#333C66"/>
<path d="M12.3081 11.6494C12.9626 11.6494 13.5089 12.1828 13.509 12.8252C13.509 13.4797 12.9748 14.001 12.3081 14.001H8.58708C7.93266 14.0008 7.38737 13.4796 7.38737 12.8252C7.38746 12.1708 7.9206 11.6496 8.58708 11.6494H12.3081Z" fill="#333C66"/>
<path d="M17.1696 7.6014C17.8239 7.60162 18.3692 8.12241 18.3693 8.76465C18.3693 9.41906 17.8361 9.94022 17.1696 9.94043H8.58708C7.93266 9.94027 7.38737 9.40698 7.38737 8.76465C7.38743 8.12237 7.92059 7.60155 8.58708 7.6014H17.1696Z" fill="#333C66"/>
<path d="M19.4085 22.4737C19.4085 22.6305 19.3462 22.7809 19.2353 22.8919C19.1244 23.0028 18.974 23.0651 18.8171 23.0651C18.6603 23.0651 18.5099 23.0028 18.399 22.8919C18.2881 22.7809 18.2258 22.6305 18.2258 22.4737V21.8841H17.0431C16.8863 21.8841 16.7359 21.8218 16.625 21.7109C16.5141 21.6 16.4518 21.4496 16.4518 21.2927C16.4518 21.1359 16.5141 20.9855 16.625 20.8746C16.7359 20.7637 16.8863 20.7014 17.0431 20.7014H20V19.8143H17.6422C17.3285 19.8143 17.0277 19.6897 16.8058 19.4679C16.584 19.2461 16.4594 18.9452 16.4594 18.6315V17.7445C16.4594 17.4308 16.584 17.1299 16.8058 16.9081C17.0277 16.6863 17.3285 16.5617 17.6422 16.5617H18.2258V15.9703C18.2258 15.8134 18.2881 15.663 18.399 15.5521C18.5099 15.4412 18.6603 15.3789 18.8171 15.3789C18.974 15.3789 19.1244 15.4412 19.2353 15.5521C19.3462 15.663 19.4085 15.8134 19.4085 15.9703V16.5617H20.5636C20.6413 16.5617 20.7182 16.577 20.7899 16.6067C20.8617 16.6364 20.9269 16.68 20.9818 16.7349C21.0367 16.7898 21.0803 16.855 21.11 16.9268C21.1398 16.9985 21.1551 17.0754 21.1551 17.1531C21.1551 17.2308 21.1398 17.3077 21.11 17.3794C21.0803 17.4512 21.0367 17.5164 20.9818 17.5713C20.9269 17.6262 20.8617 17.6698 20.7899 17.6995C20.7182 17.7292 20.6414 17.7445 20.5638 17.7445H17.6428V18.6315H20C20.3137 18.6315 20.6145 18.7561 20.8363 18.978C21.0582 19.1998 21.1828 19.5006 21.1828 19.8143V20.7014C21.1828 21.015 21.0582 21.3159 20.8363 21.5377C20.6145 21.7595 20.3137 21.8841 20 21.8841H19.4085V22.4737Z" fill="#007AFF"/>
<path d="M19.4085 22.4737C19.4085 22.6305 19.3462 22.7809 19.2353 22.8919C19.1244 23.0028 18.974 23.0651 18.8171 23.0651C18.6603 23.0651 18.5099 23.0028 18.399 22.8919C18.2881 22.7809 18.2258 22.6305 18.2258 22.4737V21.8841H17.0431C16.8863 21.8841 16.7359 21.8218 16.625 21.7109C16.5141 21.6 16.4518 21.4496 16.4518 21.2927C16.4518 21.1359 16.5141 20.9855 16.625 20.8746C16.7359 20.7637 16.8863 20.7014 17.0431 20.7014H20V19.8143H17.6422C17.3285 19.8143 17.0277 19.6897 16.8058 19.4679C16.584 19.2461 16.4594 18.9452 16.4594 18.6315V17.7445C16.4594 17.4308 16.584 17.1299 16.8058 16.9081C17.0277 16.6863 17.3285 16.5617 17.6422 16.5617H18.2258V15.9703C18.2258 15.8134 18.2881 15.663 18.399 15.5521C18.5099 15.4412 18.6603 15.3789 18.8171 15.3789C18.974 15.3789 19.1244 15.4412 19.2353 15.5521C19.3462 15.663 19.4085 15.8134 19.4085 15.9703V16.5617H20.5636C20.6413 16.5617 20.7182 16.577 20.7899 16.6067C20.8617 16.6364 20.9269 16.68 20.9818 16.7349C21.0367 16.7898 21.0803 16.855 21.11 16.9268C21.1398 16.9985 21.1551 17.0754 21.1551 17.1531C21.1551 17.2308 21.1398 17.3077 21.11 17.3794C21.0803 17.4512 21.0367 17.5164 20.9818 17.5713C20.9269 17.6262 20.8617 17.6698 20.7899 17.6995C20.7182 17.7292 20.6414 17.7445 20.5638 17.7445H17.6428V18.6315H20C20.3137 18.6315 20.6145 18.7561 20.8363 18.978C21.0582 19.1998 21.1828 19.5006 21.1828 19.8143V20.7014C21.1828 21.015 21.0582 21.3159 20.8363 21.5377C20.6145 21.7595 20.3137 21.8841 20 21.8841H19.4085V22.4737Z" fill="#007AFF"/>
</svg>
